<svg xmlns="http://www.w3.org/2000/svg" xmlns:xlink="http://www.w3.org/1999/xlink" width="2000" zoomAndPan="magnify" viewBox="0 0 1500 787.499972" height="1050" preserveAspectRatio="xMidYMid meet" version="1.0"><defs><g/><clipPath id="2f136d1224"><path d="M 11 4 L 1499.523438 4 L 1499.523438 787 L 11 787 Z M 11 4 " clip-rule="nonzero"/></clipPath><clipPath id="f17711ce62"><path d="M 2 0.980469 L 1022.867188 0.980469 L 1022.867188 706.40625 L 2 706.40625 Z M 2 0.980469 " clip-rule="nonzero"/></clipPath><clipPath id="ceaf7aba59"><path d="M 788.746094 598 L 1047.59375 598 L 1047.59375 780 L 788.746094 780 Z M 788.746094 598 " clip-rule="nonzero"/></clipPath><clipPath id="ee5daf21a2"><rect x="0" width="1233" y="0" height="510"/></clipPath><clipPath id="a731cf790a"><rect x="0" width="383" y="0" height="110"/></clipPath><clipPath id="cd116aad19"><rect x="0" width="1489" y="0" height="783"/></clipPath></defs><g clip-path="url(#2f136d1224)"><g transform="matrix(1, 0, 0, 1, 11, 4)"><g clip-path="url(#cd116aad19)"><g clip-path="url(#f17711ce62)"><path fill="#078c00" d="M 2204.5 666.78125 C 2215.46875 666.78125 2224.363281 675.679688 2224.363281 686.644531 C 2224.363281 697.613281 2215.46875 706.507812 2204.5 706.507812 L 164.976562 706.507812 C 145.34375 706.507812 127.480469 698.480469 114.5625 685.558594 C 101.644531 672.636719 93.613281 654.785156 93.613281 635.144531 L 93.613281 384.238281 L 58.222656 384.238281 C 44.398438 384.238281 33.023438 380.609375 24.140625 374.605469 C 14.308594 367.957031 7.792969 358.558594 4.519531 347.875 L 4.492188 347.886719 C 1.460938 337.972656 1.359375 327.042969 4.089844 316.445312 C 7.335938 303.796875 14.628906 291.46875 25.710938 281.914062 L 329.792969 19.78125 C 344.359375 7.246094 363.226562 0.980469 381.894531 0.980469 C 400.566406 0.980469 419.4375 7.246094 433.984375 19.78125 L 638.34375 196.542969 C 646.617188 203.691406 647.515625 216.199219 640.367188 224.46875 C 633.214844 232.742188 620.703125 233.644531 612.433594 226.492188 L 408.078125 49.738281 C 401.085938 43.722656 391.585938 40.707031 381.894531 40.707031 C 372.210938 40.707031 362.691406 43.722656 355.699219 49.738281 L 51.617188 311.871094 C 46.835938 315.996094 43.730469 321.113281 42.421875 326.21875 C 41.5 329.808594 41.472656 333.296875 42.363281 336.238281 L 42.339844 336.246094 L 42.363281 336.320312 C 43.019531 338.445312 44.339844 340.351562 46.332031 341.695312 C 48.921875 343.453125 52.84375 344.507812 58.222656 344.507812 L 113.476562 344.507812 C 124.4375 344.507812 133.339844 353.40625 133.339844 364.375 L 133.339844 635.144531 C 133.339844 643.820312 136.910156 651.742188 142.644531 657.476562 C 148.382812 663.210938 156.292969 666.785156 164.976562 666.785156 L 2204.5 666.785156 Z M 2204.5 666.78125 " fill-opacity="1" fill-rule="nonzero"/></g><g clip-path="url(#ceaf7aba59)"><path fill="#078c00" d="M 1046.105469 696.316406 C 1046.421875 695.496094 1046.679688 694.652344 1046.882812 693.796875 L 1047.203125 692.695312 C 1047.714844 690.152344 1047.714844 687.609375 1047.203125 685.0625 L 1046.882812 683.964844 C 1046.679688 683.105469 1046.421875 682.265625 1046.105469 681.441406 L 1045.71875 680.664062 C 1044.785156 678.613281 1043.535156 676.78125 1041.964844 675.167969 L 970.8125 604.015625 C 970.359375 603.589844 969.886719 603.191406 969.390625 602.8125 C 968.898438 602.433594 968.390625 602.082031 967.863281 601.75 C 967.335938 601.421875 966.792969 601.121094 966.238281 600.84375 C 965.683594 600.566406 965.113281 600.316406 964.535156 600.09375 C 963.953125 599.871094 963.363281 599.675781 962.765625 599.511719 C 962.167969 599.34375 961.5625 599.207031 960.949219 599.101562 C 960.339844 598.992188 959.722656 598.914062 959.101562 598.867188 C 958.484375 598.816406 957.863281 598.796875 957.242188 598.808594 C 956.621094 598.820312 956.003906 598.859375 955.382812 598.929688 C 954.765625 599.003906 954.15625 599.101562 953.546875 599.230469 C 952.941406 599.359375 952.339844 599.519531 951.746094 599.707031 C 951.15625 599.890625 950.574219 600.105469 950 600.351562 C 949.429688 600.59375 948.871094 600.863281 948.324219 601.160156 C 947.777344 601.457031 947.246094 601.777344 946.734375 602.125 C 946.21875 602.472656 945.71875 602.84375 945.242188 603.238281 C 944.761719 603.632812 944.300781 604.050781 943.863281 604.488281 C 943.425781 604.929688 943.007812 605.390625 942.613281 605.867188 C 942.214844 606.347656 941.84375 606.84375 941.496094 607.359375 C 941.148438 607.875 940.828125 608.40625 940.53125 608.953125 C 940.234375 609.496094 939.964844 610.054688 939.722656 610.628906 C 939.480469 611.199219 939.265625 611.78125 939.078125 612.375 C 938.890625 612.964844 938.734375 613.566406 938.605469 614.175781 C 938.476562 614.78125 938.375 615.394531 938.304688 616.011719 C 938.234375 616.628906 938.195312 617.25 938.183594 617.871094 C 938.171875 618.492188 938.191406 619.109375 938.238281 619.730469 C 938.289062 620.347656 938.367188 620.964844 938.472656 621.578125 C 938.582031 622.1875 938.71875 622.792969 938.882812 623.394531 C 939.050781 623.992188 939.242188 624.582031 939.464844 625.160156 C 939.6875 625.742188 939.9375 626.308594 940.214844 626.863281 C 940.492188 627.421875 940.796875 627.960938 941.125 628.488281 C 941.453125 629.015625 941.808594 629.527344 942.183594 630.019531 C 942.5625 630.511719 942.964844 630.984375 943.386719 631.441406 L 981.355469 669.472656 L 808.261719 669.472656 C 807.628906 669.476562 806.992188 669.503906 806.363281 669.566406 C 805.730469 669.628906 805.101562 669.722656 804.476562 669.847656 C 803.855469 669.972656 803.238281 670.125 802.628906 670.308594 C 802.023438 670.496094 801.425781 670.707031 800.835938 670.953125 C 800.25 671.195312 799.675781 671.464844 799.117188 671.765625 C 798.554688 672.066406 798.011719 672.390625 797.484375 672.746094 C 796.953125 673.097656 796.445312 673.476562 795.953125 673.878906 C 795.460938 674.28125 794.992188 674.707031 794.542969 675.15625 C 794.09375 675.609375 793.667969 676.078125 793.261719 676.570312 C 792.859375 677.058594 792.480469 677.570312 792.128906 678.097656 C 791.777344 678.628906 791.449219 679.171875 791.148438 679.730469 C 790.851562 680.292969 790.578125 680.867188 790.335938 681.453125 C 790.09375 682.039062 789.878906 682.636719 789.695312 683.246094 C 789.507812 683.855469 789.355469 684.46875 789.230469 685.09375 C 789.109375 685.71875 789.015625 686.34375 788.953125 686.976562 C 788.890625 687.609375 788.859375 688.242188 788.859375 688.878906 C 788.859375 689.515625 788.890625 690.148438 788.953125 690.78125 C 789.015625 691.414062 789.109375 692.042969 789.230469 692.664062 C 789.355469 693.289062 789.507812 693.90625 789.695312 694.511719 C 789.878906 695.121094 790.09375 695.71875 790.335938 696.304688 C 790.578125 696.894531 790.851562 697.464844 791.148438 698.027344 C 791.449219 698.585938 791.777344 699.132812 792.128906 699.660156 C 792.480469 700.1875 792.859375 700.699219 793.261719 701.191406 C 793.667969 701.679688 794.09375 702.152344 794.542969 702.601562 C 794.992188 703.050781 795.460938 703.476562 795.953125 703.878906 C 796.445312 704.28125 796.953125 704.660156 797.484375 705.015625 C 798.011719 705.367188 798.554688 705.695312 799.117188 705.992188 C 799.675781 706.292969 800.25 706.5625 800.835938 706.808594 C 801.425781 707.050781 802.023438 707.265625 802.628906 707.449219 C 803.238281 707.632812 803.855469 707.789062 804.476562 707.910156 C 805.101562 708.035156 805.730469 708.128906 806.363281 708.191406 C 806.992188 708.253906 807.628906 708.285156 808.261719 708.285156 L 981.355469 708.285156 L 943.324219 746.320312 C 942.847656 746.761719 942.394531 747.226562 941.96875 747.714844 C 941.539062 748.203125 941.136719 748.714844 940.757812 749.242188 C 940.378906 749.769531 940.03125 750.316406 939.707031 750.882812 C 939.386719 751.445312 939.089844 752.023438 938.828125 752.617188 C 938.5625 753.210938 938.328125 753.816406 938.125 754.433594 C 937.921875 755.050781 937.75 755.675781 937.609375 756.3125 C 937.46875 756.945312 937.359375 757.585938 937.28125 758.230469 C 937.207031 758.875 937.160156 759.523438 937.148438 760.171875 C 937.136719 760.824219 937.160156 761.472656 937.214844 762.121094 C 937.265625 762.765625 937.351562 763.410156 937.472656 764.050781 C 937.589844 764.6875 937.738281 765.320312 937.921875 765.945312 C 938.101562 766.566406 938.316406 767.179688 938.558594 767.785156 C 938.800781 768.386719 939.074219 768.976562 939.378906 769.550781 C 939.679688 770.125 940.011719 770.683594 940.371094 771.226562 C 940.726562 771.765625 941.113281 772.289062 941.523438 772.792969 C 941.9375 773.296875 942.371094 773.777344 942.832031 774.238281 C 943.289062 774.695312 943.769531 775.132812 944.273438 775.542969 C 944.777344 775.953125 945.300781 776.339844 945.84375 776.699219 C 946.382812 777.054688 946.941406 777.386719 947.519531 777.691406 C 948.09375 777.992188 948.683594 778.265625 949.285156 778.507812 C 949.886719 778.75 950.5 778.964844 951.125 779.144531 C 951.746094 779.328125 952.378906 779.476562 953.019531 779.597656 C 953.65625 779.714844 954.300781 779.800781 954.949219 779.855469 C 955.597656 779.90625 956.246094 779.929688 956.894531 779.917969 C 957.542969 779.90625 958.191406 779.863281 958.835938 779.785156 C 959.480469 779.710938 960.121094 779.601562 960.757812 779.460938 C 961.390625 779.320312 962.015625 779.148438 962.632812 778.941406 C 963.25 778.738281 963.855469 778.503906 964.449219 778.242188 C 965.042969 777.976562 965.621094 777.683594 966.1875 777.359375 C 966.75 777.039062 967.296875 776.6875 967.824219 776.308594 C 968.355469 775.933594 968.863281 775.53125 969.351562 775.101562 C 969.839844 774.671875 970.304688 774.21875 970.75 773.746094 L 1041.902344 702.59375 C 1043.46875 700.976562 1044.722656 699.144531 1045.652344 697.09375 Z M 1046.105469 696.316406 " fill-opacity="1" fill-rule="nonzero"/></g><g transform="matrix(1, 0, 0, 1, 231, 151)"><g clip-path="url(#ee5daf21a2)"><g fill="#322f30" fill-opacity="1"><g transform="translate(0.731458, 399.236662)"><g><path d="M 29.015625 0 L 29.015625 -201.265625 L 77.546875 -201.265625 L 77.546875 -174.25 L 81.375 -173.53125 C 87.945312 -184.351562 95.640625 -192.316406 104.453125 -197.421875 C 113.273438 -202.535156 124.5625 -205.09375 138.3125 -205.09375 C 153.507812 -205.09375 165.726562 -202.082031 174.96875 -196.0625 C 184.21875 -190.039062 190.972656 -181.25 195.234375 -169.6875 L 199.0625 -169.6875 C 205.269531 -181.726562 213.269531 -190.640625 223.0625 -196.421875 C 232.851562 -202.203125 245.046875 -205.09375 259.640625 -205.09375 C 301.367188 -205.09375 322.234375 -181.859375 322.234375 -135.390625 L 322.234375 0 L 271.6875 0 L 271.6875 -129 C 271.6875 -140.800781 269.375 -149.316406 264.75 -154.546875 C 260.132812 -159.773438 252.71875 -162.390625 242.5 -162.390625 C 214.757812 -162.390625 200.890625 -143.835938 200.890625 -106.734375 L 200.890625 0 L 150.34375 0 L 150.34375 -129 C 150.34375 -140.800781 148 -149.316406 143.3125 -154.546875 C 138.632812 -159.773438 131.1875 -162.390625 120.96875 -162.390625 C 107.957031 -162.390625 97.800781 -158.039062 90.5 -149.34375 C 83.195312 -140.644531 79.546875 -126.8125 79.546875 -107.84375 L 79.546875 0 Z M 29.015625 0 "/></g></g></g><g fill="#322f30" fill-opacity="1"><g transform="translate(343.624774, 399.236662)"><g><path d="M 78.453125 3.828125 C 65.566406 3.828125 54.378906 1.457031 44.890625 -3.28125 C 35.398438 -8.03125 28.097656 -14.992188 22.984375 -24.171875 C 17.878906 -33.359375 15.328125 -44.398438 15.328125 -57.296875 C 15.328125 -69.210938 17.878906 -79.210938 22.984375 -87.296875 C 28.097656 -95.390625 36.003906 -102.019531 46.703125 -107.1875 C 57.410156 -112.363281 71.398438 -116.351562 88.671875 -119.15625 C 100.710938 -121.09375 109.863281 -123.21875 116.125 -125.53125 C 122.394531 -127.84375 126.625 -130.457031 128.8125 -133.375 C 131.007812 -136.300781 132.109375 -140.015625 132.109375 -144.515625 C 132.109375 -150.960938 129.859375 -155.890625 125.359375 -159.296875 C 120.859375 -162.703125 113.375 -164.40625 102.90625 -164.40625 C 91.71875 -164.40625 81.070312 -161.910156 70.96875 -156.921875 C 60.875 -151.929688 52.117188 -145.363281 44.703125 -137.21875 L 41.046875 -137.21875 L 19.890625 -169.140625 C 30.109375 -180.453125 42.578125 -189.269531 57.296875 -195.59375 C 72.015625 -201.925781 88.070312 -205.09375 105.46875 -205.09375 C 132.101562 -205.09375 151.378906 -199.4375 163.296875 -188.125 C 175.222656 -176.8125 181.1875 -160.753906 181.1875 -139.953125 L 181.1875 -52.546875 C 181.1875 -43.546875 185.140625 -39.046875 193.046875 -39.046875 C 196.085938 -39.046875 199.066406 -39.59375 201.984375 -40.6875 L 204.546875 -39.953125 L 208.1875 -4.75 C 205.394531 -2.914062 201.503906 -1.421875 196.515625 -0.265625 C 191.523438 0.878906 186.050781 1.453125 180.09375 1.453125 C 168.050781 1.453125 158.65625 -0.851562 151.90625 -5.46875 C 145.15625 -10.09375 140.316406 -17.332031 137.390625 -27.1875 L 133.5625 -27.546875 C 123.707031 -6.628906 105.335938 3.828125 78.453125 3.828125 Z M 94.515625 -33.9375 C 106.191406 -33.9375 115.523438 -37.859375 122.515625 -45.703125 C 129.515625 -53.546875 133.015625 -64.460938 133.015625 -78.453125 L 133.015625 -98.890625 L 129.546875 -99.625 C 126.503906 -97.1875 122.519531 -95.144531 117.59375 -93.5 C 112.664062 -91.863281 105.582031 -90.253906 96.34375 -88.671875 C 85.394531 -86.847656 77.515625 -83.71875 72.703125 -79.28125 C 67.898438 -74.84375 65.5 -68.546875 65.5 -60.390625 C 65.5 -51.753906 68.050781 -45.1875 73.15625 -40.6875 C 78.269531 -36.1875 85.390625 -33.9375 94.515625 -33.9375 Z M 94.515625 -33.9375 "/></g></g></g><g fill="#322f30" fill-opacity="1"><g transform="translate(550.588833, 399.236662)"><g><path d="M 29.015625 0 L 29.015625 -282.09375 L 79.546875 -282.09375 L 79.546875 -125.53125 L 84.484375 -125.53125 L 142.6875 -201.265625 L 193.953125 -201.265625 L 193.953125 -197.0625 L 125.53125 -108.75 L 201.625 -4.5625 L 201.625 0 L 148.34375 0 L 84.484375 -84.84375 L 79.546875 -84.84375 L 79.546875 0 Z M 29.015625 0 "/></g></g></g><g fill="#322f30" fill-opacity="1"><g transform="translate(747.335342, 399.236662)"><g><path d="M 78.453125 3.828125 C 65.566406 3.828125 54.378906 1.457031 44.890625 -3.28125 C 35.398438 -8.03125 28.097656 -14.992188 22.984375 -24.171875 C 17.878906 -33.359375 15.328125 -44.398438 15.328125 -57.296875 C 15.328125 -69.210938 17.878906 -79.210938 22.984375 -87.296875 C 28.097656 -95.390625 36.003906 -102.019531 46.703125 -107.1875 C 57.410156 -112.363281 71.398438 -116.351562 88.671875 -119.15625 C 100.710938 -121.09375 109.863281 -123.21875 116.125 -125.53125 C 122.394531 -127.84375 126.625 -130.457031 128.8125 -133.375 C 131.007812 -136.300781 132.109375 -140.015625 132.109375 -144.515625 C 132.109375 -150.960938 129.859375 -155.890625 125.359375 -159.296875 C 120.859375 -162.703125 113.375 -164.40625 102.90625 -164.40625 C 91.71875 -164.40625 81.070312 -161.910156 70.96875 -156.921875 C 60.875 -151.929688 52.117188 -145.363281 44.703125 -137.21875 L 41.046875 -137.21875 L 19.890625 -169.140625 C 30.109375 -180.453125 42.578125 -189.269531 57.296875 -195.59375 C 72.015625 -201.925781 88.070312 -205.09375 105.46875 -205.09375 C 132.101562 -205.09375 151.378906 -199.4375 163.296875 -188.125 C 175.222656 -176.8125 181.1875 -160.753906 181.1875 -139.953125 L 181.1875 -52.546875 C 181.1875 -43.546875 185.140625 -39.046875 193.046875 -39.046875 C 196.085938 -39.046875 199.066406 -39.59375 201.984375 -40.6875 L 204.546875 -39.953125 L 208.1875 -4.75 C 205.394531 -2.914062 201.503906 -1.421875 196.515625 -0.265625 C 191.523438 0.878906 186.050781 1.453125 180.09375 1.453125 C 168.050781 1.453125 158.65625 -0.851562 151.90625 -5.46875 C 145.15625 -10.09375 140.316406 -17.332031 137.390625 -27.1875 L 133.5625 -27.546875 C 123.707031 -6.628906 105.335938 3.828125 78.453125 3.828125 Z M 94.515625 -33.9375 C 106.191406 -33.9375 115.523438 -37.859375 122.515625 -45.703125 C 129.515625 -53.546875 133.015625 -64.460938 133.015625 -78.453125 L 133.015625 -98.890625 L 129.546875 -99.625 C 126.503906 -97.1875 122.519531 -95.144531 117.59375 -93.5 C 112.664062 -91.863281 105.582031 -90.253906 96.34375 -88.671875 C 85.394531 -86.847656 77.515625 -83.71875 72.703125 -79.28125 C 67.898438 -74.84375 65.5 -68.546875 65.5 -60.390625 C 65.5 -51.753906 68.050781 -45.1875 73.15625 -40.6875 C 78.269531 -36.1875 85.390625 -33.9375 94.515625 -33.9375 Z M 94.515625 -33.9375 "/></g></g></g><g fill="#322f30" fill-opacity="1"><g transform="translate(954.299354, 399.236662)"><g><path d="M 168.96875 0 L 10.578125 0 L 10.578125 -41.78125 L 108.015625 -157.46875 L 106.921875 -161.296875 L 15.140625 -161.296875 L 15.140625 -201.4375 L 167.5 -201.4375 L 167.5 -159.65625 L 70.0625 -43.96875 L 71.34375 -40.140625 L 168.96875 -40.140625 Z M 168.96875 0 "/></g></g></g><g fill="#322f30" fill-opacity="1"><g transform="translate(1128.603903, 399.236662)"><g><path d="M 54.1875 -225.34375 C 45.0625 -225.34375 37.640625 -228.109375 31.921875 -233.640625 C 26.210938 -239.179688 23.359375 -246.328125 23.359375 -255.078125 C 23.359375 -263.722656 26.210938 -270.8125 31.921875 -276.34375 C 37.640625 -281.875 45.0625 -284.640625 54.1875 -284.640625 C 60.269531 -284.640625 65.679688 -283.363281 70.421875 -280.8125 C 75.171875 -278.257812 78.851562 -274.757812 81.46875 -270.3125 C 84.082031 -265.875 85.390625 -260.796875 85.390625 -255.078125 C 85.390625 -249.367188 84.082031 -244.257812 81.46875 -239.75 C 78.851562 -235.25 75.171875 -231.722656 70.421875 -229.171875 C 65.679688 -226.617188 60.269531 -225.34375 54.1875 -225.34375 Z M 29.015625 0 L 29.015625 -201.265625 L 79.546875 -201.265625 L 79.546875 0 Z M 29.015625 0 "/></g></g></g></g></g><g transform="matrix(1, 0, 0, 1, 1090, 630)"><g clip-path="url(#a731cf790a)"><g fill="#322f30" fill-opacity="1"><g transform="translate(0.828785, 73.144257)"><g><path d="M 4.8125 0 L 4.8125 -57.140625 L 21.46875 -57.140625 C 27.664062 -57.140625 32.695312 -56.484375 36.5625 -55.171875 C 40.425781 -53.867188 43.421875 -51.960938 45.546875 -49.453125 C 47.671875 -46.953125 49.097656 -43.894531 49.828125 -40.28125 C 50.566406 -36.664062 50.9375 -32.570312 50.9375 -28 C 50.9375 -23.914062 50.539062 -20.160156 49.75 -16.734375 C 48.957031 -13.304688 47.5 -10.351562 45.375 -7.875 C 43.257812 -5.394531 40.363281 -3.460938 36.6875 -2.078125 C 33.019531 -0.691406 28.300781 0 22.53125 0 Z M 16.328125 -47.421875 L 16.328125 -9.71875 L 22.765625 -9.71875 C 26.421875 -9.71875 29.347656 -10.140625 31.546875 -10.984375 C 33.753906 -11.828125 35.441406 -13.050781 36.609375 -14.65625 C 37.773438 -16.257812 38.535156 -18.1875 38.890625 -20.4375 C 39.242188 -22.695312 39.421875 -25.21875 39.421875 -28 C 39.421875 -31.207031 39.257812 -34.019531 38.9375 -36.4375 C 38.613281 -38.863281 37.835938 -40.890625 36.609375 -42.515625 C 35.378906 -44.148438 33.566406 -45.375 31.171875 -46.1875 C 28.785156 -47.007812 25.550781 -47.421875 21.46875 -47.421875 Z M 16.328125 -47.421875 "/></g></g></g><g fill="#322f30" fill-opacity="1"><g transform="translate(71.354236, 73.144257)"><g><path d="M 27.1875 -47.421875 L 21.296875 -47.421875 L 21.296875 -9.71875 L 27.1875 -9.71875 L 27.1875 0 L 3.921875 0 L 3.921875 -9.71875 L 9.796875 -9.71875 L 9.796875 -47.421875 L 3.921875 -47.421875 L 3.921875 -57.140625 L 27.1875 -57.140625 Z M 27.1875 -47.421875 "/></g></g></g><g fill="#322f30" fill-opacity="1"><g transform="translate(118.538708, 73.144257)"><g><path d="M 43.75 -40.890625 C 43.75 -36.265625 42.753906 -32.578125 40.765625 -29.828125 C 38.785156 -27.085938 35.863281 -25.195312 32 -24.15625 L 46.125 0 L 32.96875 0 L 19.421875 -23.265625 L 16.328125 -23.265625 L 16.328125 0 L 4.8125 0 L 4.8125 -57.140625 L 24.25 -57.140625 C 30.664062 -57.140625 35.519531 -55.707031 38.8125 -52.84375 C 42.101562 -49.988281 43.75 -46.003906 43.75 -40.890625 Z M 16.328125 -47.421875 L 16.328125 -32.96875 L 24.25 -32.96875 C 26.96875 -32.96875 28.976562 -33.5 30.28125 -34.5625 C 31.582031 -35.625 32.234375 -37.625 32.234375 -40.5625 C 32.234375 -42.632812 31.582031 -44.296875 30.28125 -45.546875 C 28.976562 -46.796875 26.96875 -47.421875 24.25 -47.421875 Z M 16.328125 -47.421875 "/></g></g></g><g fill="#322f30" fill-opacity="1"><g transform="translate(182.127178, 73.144257)"><g><path d="M 16.328125 -23.75 L 16.328125 -9.71875 L 42.765625 -9.71875 L 42.765625 0 L 4.8125 0 L 4.8125 -57.140625 L 41.953125 -57.140625 L 41.953125 -47.421875 L 16.328125 -47.421875 L 16.328125 -33.46875 L 40.734375 -33.46875 L 40.734375 -23.75 Z M 16.328125 -23.75 "/></g></g></g><g fill="#322f30" fill-opacity="1"><g transform="translate(244.165025, 73.144257)"><g><path d="M 52.96875 -17.140625 C 52.101562 -13.878906 50.878906 -11.101562 49.296875 -8.8125 C 47.722656 -6.53125 45.875 -4.664062 43.75 -3.21875 C 41.625 -1.78125 39.3125 -0.75 36.8125 -0.125 C 34.3125 0.5 31.671875 0.8125 28.890625 0.8125 C 25.410156 0.8125 22.132812 0.335938 19.0625 -0.609375 C 15.988281 -1.566406 13.304688 -3.171875 11.015625 -5.421875 C 8.734375 -7.679688 6.925781 -10.6875 5.59375 -14.4375 C 4.257812 -18.195312 3.59375 -22.878906 3.59375 -28.484375 C 3.59375 -34.085938 4.257812 -38.765625 5.59375 -42.515625 C 6.925781 -46.273438 8.734375 -49.296875 11.015625 -51.578125 C 13.304688 -53.867188 15.988281 -55.503906 19.0625 -56.484375 C 22.132812 -57.460938 25.410156 -57.953125 28.890625 -57.953125 C 31.554688 -57.953125 34.113281 -57.648438 36.5625 -57.046875 C 39.007812 -56.453125 41.253906 -55.5 43.296875 -54.1875 C 45.335938 -52.882812 47.144531 -51.195312 48.71875 -49.125 C 50.300781 -47.0625 51.582031 -44.535156 52.5625 -41.546875 L 41.703125 -38.03125 C 41.210938 -39.988281 40.53125 -41.617188 39.65625 -42.921875 C 38.789062 -44.234375 37.785156 -45.285156 36.640625 -46.078125 C 35.503906 -46.867188 34.269531 -47.425781 32.9375 -47.75 C 31.601562 -48.070312 30.253906 -48.234375 28.890625 -48.234375 C 26.984375 -48.234375 25.203125 -47.929688 23.546875 -47.328125 C 21.890625 -46.734375 20.429688 -45.6875 19.171875 -44.1875 C 17.921875 -42.695312 16.925781 -40.671875 16.1875 -38.109375 C 15.457031 -35.554688 15.09375 -32.347656 15.09375 -28.484375 C 15.09375 -24.617188 15.457031 -21.421875 16.1875 -18.890625 C 16.925781 -16.359375 17.921875 -14.359375 19.171875 -12.890625 C 20.429688 -11.421875 21.890625 -10.382812 23.546875 -9.78125 C 25.203125 -9.1875 26.984375 -8.890625 28.890625 -8.890625 C 30.304688 -8.890625 31.691406 -9.082031 33.046875 -9.46875 C 34.410156 -9.851562 35.664062 -10.492188 36.8125 -11.390625 C 37.957031 -12.285156 38.960938 -13.453125 39.828125 -14.890625 C 40.703125 -16.335938 41.382812 -18.125 41.875 -20.25 Z M 52.96875 -17.140625 "/></g></g></g><g fill="#322f30" fill-opacity="1"><g transform="translate(315.914721, 73.144257)"><g><path d="M 29.71875 -47.421875 L 29.71875 0 L 18.203125 0 L 18.203125 -47.421875 L 2.9375 -47.421875 L 2.9375 -57.140625 L 44.96875 -57.140625 L 44.96875 -47.421875 Z M 29.71875 -47.421875 "/></g></g></g></g></g></g></g></g></svg>